<?xml version="1.0" encoding="UTF-8"?>
<svg id="_레이어_1" data-name="레이어 1" xmlns="http://www.w3.org/2000/svg" viewBox="0 0 483.39 150.13">
  <defs>
    <style>
      .cls-1 {
        fill: #fff;
      }

      .cls-2 {
        fill: #ffca12;
      }

      .cls-3 {
        fill: none;
        opacity: .9;
        stroke: #fff;
        stroke-miterlimit: 10;
      }
    </style>
  </defs>
  <path class="cls-2" d="m147.91,4.05h0c-.01-1.4-.05-2.56-.07-3.37-.65,0-2.16,0-4.14.04-3.66.09-20.4.61-38.84,5.74-10.55,2.93-35.96,10.31-59.57,32-9.93,9.12-15.96,17.55-21.45,25.19C11.88,80.3,4.5,95.78,0,106.89c15.34-4.07,31.46.2,41.87,11.23,12.14,12.88,11.11,29.24,10.89,32,9.69-3.78,23.59-10.43,37.79-22.13,11.55-9.52,18.58-18.49,23.07-24.28,0,0,20.69-26.73,28.98-57.09-3.72,1.19-9.37,2.42-16.2,1.87-7.93-.64-13.85-3.39-17.04-5.16,2.58.98,9.5,3.22,17.26.62,2.62-.88,5.34-2.32,7.98-4.55,5.32-4.5,7.44-10.41,11.37-21.51.91-2.57,1.76-5.29,1.77-5.33.01-.31.02-.5.02-.5,0,0,.15-3.62.15-8.02Zm-55.01,41.14c-3.03,0-5.49-2.46-5.49-5.49s2.46-5.49,5.49-5.49,5.49,2.46,5.49,5.49-2.46,5.49-5.49,5.49Z"/>
  <path class="cls-1" d="m134.2,39.46c-2.6,2.12-5.27,3.49-7.85,4.33-7.63,2.48-14.45.35-16.99-.59,3.27,1.74,9.08,4.29,16.77,4.91,7.05.57,12.75-.73,16.19-1.79.44-1.56,1-3.63,1.54-6.1.12-.55.54-2.48,1.1-5.77.4-2.35,1.09-6.47,1.63-11.96.22-2.22.44-4.99.59-8.21-.38,1.04-.99,2.7-1.78,4.72-4.32,10.99-6.51,16.64-11.19,20.46Z"/>
  <circle cx="92.89" cy="39.7" r="5.49" transform="translate(-.87 77.31) rotate(-45)"/>
  <path class="cls-3" d="m53.28,72c-2.21.33-6.4,1.33-9.87,4.77-.42.41-6.51,6.57-4.34,10.89,1.02,2.03,3.35,2.67,3.57,2.72,4.93,1.27,10.63-4.39,10.72-4.26.1.14-7.58,4.06-7.83,9.36,0,.19-.08,2.34,1.36,4.09,2.96,3.59,9.38,1.92,9.87,1.79,5.29-1.45,8.56-5.99,8.68-5.87.16.16-7.56,5.87-6.47,10.64.45,1.97,2.27,3.15,3.32,3.83,3.29,2.13,7.25,1.84,9.62,1.02,5.14-1.78,8.72-8.14,8.26-15.66"/>
  <g>
    <path d="m164.64,58.91h12.92l34.59,41.65v-42.5h15.47v69.27h-12.92l-34.59-41.65v42.5h-15.47V58.91Z"/>
    <path d="m276.92,80.55c4.02,2.24,7.17,5.34,9.44,9.31,2.27,3.97,3.4,8.44,3.4,13.43s-1.13,9.46-3.4,13.43c-2.27,3.97-5.41,7.07-9.44,9.31-4.02,2.24-8.56,3.36-13.6,3.36s-9.58-1.12-13.6-3.36c-4.02-2.24-7.17-5.34-9.44-9.31-2.27-3.97-3.4-8.44-3.4-13.43s1.13-9.46,3.4-13.43c2.27-3.97,5.41-7.07,9.44-9.31,4.02-2.24,8.56-3.36,13.6-3.36s9.58,1.12,13.6,3.36Zm-22.14,13.26c-2.18,2.46-3.27,5.62-3.27,9.48s1.09,7.01,3.27,9.48,5.03,3.7,8.54,3.7,6.36-1.23,8.54-3.7,3.27-5.62,3.27-9.48-1.09-7.01-3.27-9.48-5.03-3.7-8.54-3.7-6.36,1.23-8.54,3.7Z"/>
    <path d="m311.65,147.7c-3.48-1.61-6.25-3.78-8.29-6.5-2.04-2.72-3.34-5.75-3.91-9.1h15.3c.85,3.51,3.94,5.27,9.27,5.27,3.17,0,5.72-.94,7.65-2.8,1.93-1.87,2.89-4.36,2.89-7.48v-5.27c-3.12,4.19-7.88,6.29-14.28,6.29-4.7,0-8.9-1.08-12.58-3.23-3.68-2.15-6.54-5.16-8.58-9.01-2.04-3.85-3.06-8.19-3.06-13s1.02-9.34,3.06-13.22c2.04-3.88,4.9-6.93,8.58-9.14,3.68-2.21,7.88-3.31,12.58-3.31,6.4,0,11.16,2.1,14.28,6.29v-5.1h15.13v48.87c0,4.42-1.11,8.37-3.32,11.86-2.21,3.49-5.26,6.19-9.14,8.12-3.88,1.93-8.29,2.89-13.22,2.89s-8.88-.81-12.37-2.42Zm19.85-35.66c2.21-2.38,3.32-5.44,3.32-9.18s-1.11-6.8-3.32-9.18-5.16-3.57-8.84-3.57-6.43,1.19-8.58,3.57c-2.15,2.38-3.23,5.44-3.23,9.18s1.08,6.8,3.23,9.18c2.15,2.38,5.01,3.57,8.58,3.57s6.63-1.19,8.84-3.57Z"/>
    <path d="m370.17,126.02c-3.68-2.24-6.54-5.34-8.58-9.31s-3.06-8.44-3.06-13.43,1.02-9.46,3.06-13.43c2.04-3.97,4.9-7.07,8.58-9.31,3.68-2.24,7.88-3.36,12.58-3.36,6.4,0,11.16,2.1,14.28,6.29v-5.1h15.13v49.81h-15.13v-5.1c-3.12,4.19-7.88,6.29-14.28,6.29-4.7,0-8.9-1.12-12.58-3.36Zm23.8-13.26c2.21-2.46,3.32-5.62,3.32-9.48s-1.11-7.01-3.32-9.48-5.16-3.7-8.84-3.7-6.43,1.23-8.58,3.7c-2.15,2.46-3.23,5.62-3.23,9.48s1.08,7.01,3.23,9.48c2.15,2.46,5.01,3.7,8.58,3.7s6.63-1.23,8.84-3.7Z"/>
    <path d="m423.55,78.38h15.13v5.1c3.12-4.19,7.76-6.29,13.94-6.29,2.72,0,4.9.28,6.54.85l.17,14.2c-2.15-1.13-4.73-1.7-7.74-1.7-4.02,0-7.18,1.08-9.48,3.23-2.29,2.15-3.44,5.13-3.44,8.93v25.5h-15.13v-49.81Z"/>
    <path d="m480.75,56.96c1.76,1.76,2.64,3.97,2.64,6.63s-.88,4.87-2.64,6.63c-1.76,1.76-3.97,2.64-6.63,2.64s-4.87-.88-6.63-2.64c-1.76-1.76-2.63-3.97-2.63-6.63s.88-4.87,2.63-6.63,3.97-2.63,6.63-2.63,4.87.88,6.63,2.63Zm.94,71.4h-15.13v-49.98h15.13v49.98Z"/>
  </g>
</svg>