<?xml version="1.0" encoding="UTF-8"?>
<svg id="_레이어_1" data-name="레이어 1" xmlns="http://www.w3.org/2000/svg" viewBox="0 0 148.07 149.57">
  <defs>
    <style>
      .cls-1 {
        fill: #ffca12;
      }

      .cls-2 {
        fill: none;
        opacity: .9;
        stroke: #fff;
        stroke-miterlimit: 10;
      }
    </style>
  </defs>
  <path class="cls-1" d="m147.91,3.5h0c-.01-1.4-.05-2.56-.07-3.37-.65,0-2.16,0-4.14.04-3.66.09-20.4.61-38.84,5.74-10.55,2.93-35.96,10.31-59.57,32-9.93,9.12-15.96,17.55-21.45,25.19C11.88,79.75,4.5,95.23,0,106.34c15.34-4.07,31.46.2,41.87,11.23,12.14,12.88,11.11,29.24,10.89,32,9.69-3.78,23.59-10.43,37.79-22.13,11.55-9.52,18.58-18.49,23.07-24.28,0,0,20.69-26.73,28.98-57.09-3.72,1.19-9.37,2.42-16.2,1.87-7.93-.64-13.85-3.39-17.04-5.16,2.58.98,9.5,3.22,17.26.62,2.62-.88,5.34-2.32,7.98-4.55,5.32-4.5,7.44-10.41,11.37-21.51.91-2.57,1.76-5.29,1.77-5.33.01-.31.02-.5.02-.5,0,0,.15-3.62.15-8.02Zm-55.01,41.14c-3.03,0-5.49-2.46-5.49-5.49s2.46-5.49,5.49-5.49,5.49,2.46,5.49,5.49-2.46,5.49-5.49,5.49Z"/>
  <circle cx="92.89" cy="39.15" r="5.49" transform="translate(-.47 77.15) rotate(-45)"/>
  <path class="cls-2" d="m53.28,71.45c-2.21.33-6.4,1.33-9.87,4.77-.42.41-6.51,6.57-4.34,10.89,1.02,2.03,3.35,2.67,3.57,2.72,4.93,1.27,10.63-4.39,10.72-4.26.1.14-7.58,4.06-7.83,9.36,0,.19-.08,2.34,1.36,4.09,2.96,3.59,9.38,1.92,9.87,1.79,5.29-1.45,8.56-5.99,8.68-5.87.16.16-7.56,5.87-6.47,10.64.45,1.97,2.27,3.15,3.32,3.83,3.29,2.13,7.25,1.84,9.62,1.02,5.14-1.78,8.72-8.14,8.26-15.66"/>
</svg>