<?xml version="1.0" encoding="UTF-8"?>
<svg id="_레이어_2" data-name="레이어 2" xmlns="http://www.w3.org/2000/svg" viewBox="0 0 340.61 288.37">
  <defs>
    <style>
      .cls-1 {
        fill: #fff;
      }

      .cls-2 {
        fill: none;
        stroke: #fff;
        stroke-miterlimit: 10;
      }

      .cls-3 {
        fill: #ffca12;
      }
    </style>
  </defs>
  <g>
    <path class="cls-3" d="m204.92,6.17c-.55-.68-1.55-1.56-10.04-3.23-4.57-.9-6.85-1.35-10.38-1.7-14.21-1.43-26.21-.68-26.21-.68-4.24.3-17.14,1.38-30.64,5.11-29.33,8.1-51.68,25.99-60.6,33.7-5.31,4.6-13.74,12.6-22.13,25.19-14.75,22.15-18.57,43.22-20.26,53.11-1.72,10.06-3.11,18.39-1.68,29.62,1.72,13.5,6.56,23.85,10.17,30.19.11,1.29.31,2.94.67,4.82,0,0,.41,1.92.94,3.94.92,3.49,5.64,14.85,13.38,29.64,4.65,7.52,8.97,13.11,12.09,16.85,5.48,6.58,8.22,9.86,11.06,12.6,4.85,4.65,8.28,6.97,7.66,8.68-.59,1.64-4.22.88-8.17,1.53-15.11,2.5-30.04,24.88-34.69,28.95-.48.42-1.63,1.41-3.37,1.76-.57.12-1.01.09-1.46.13-1.84.17-20.59-10.66-28.06-35.95C-3.91,226.3.02,191.52,22.92,175.89c6.2-4.23,12.38-6.09,16.63-7,1.02-.7,2.04-1.41,3.08-2.11.76-.52,12.81-7.79,15.56-9.12.47-.23,1.02-.49,1.7-.85.58-.31.93-.51,1.17-.64.34-.19.58-.3.85-.43.95-.46,1.24-.63,1.96-.97,1.62-.78,1.72-.68,3.45-1.5.76-.36.87-.44,1.6-.77.93-.42,1.05-.42,1.91-.83.39-.18.77-.37,1.52-.75.34-.17.63-.31.83-.41,0,0,.82-.3,1.6-.58,1.95-.71,4.12-1.52,9.39-3.49,6.6-2.46,7.87-2.93,9.61-3.59,9.88-3.75,18.24-7.91,20.77-9.19,11.68-5.92,20.28-11.8,23.83-14.3,7.03-4.96,20.63-14.7,34.21-31.32,10.06-12.31,15.72-23.02,17.36-26.21,5.4-10.51,8.18-19.15,10.04-25.02.64-2.01,1.73-6.62,3.91-15.83,2.28-9.59,2.81-12.6,1.02-14.81Z"/>
    <path class="cls-2" d="m21.46,208.4c-1.73,4.55-4.39,13.49-2.72,24.51,2.85,18.81,16.17,29.53,19.4,32"/>
    <path class="cls-2" d="m35.62,211.21c-1.52,3.35-3.86,9.92-2.39,18.02,2.5,13.83,14.21,21.72,17.06,23.53"/>
    <circle class="cls-1" cx="155.25" cy="25.42" r="5.02"/>
    <path class="cls-2" d="m122.65,33.85c-3.25,1.34-5.3,4.51-5.11,7.83.2,3.28,2.53,5.77,4.85,6.72,2.38.98,4.96.4,6.38.09,2.38-.53,3.73-1.47,4-1.11.49.65-4.19,3.25-4.34,7.15-.1,2.56,1.79,5.24,4.19,6.34,2.12.98,4.18.53,5.26.29,3.85-.84,6.07-3.53,6.43-3.17.35.35-2.36,2.43-2.85,5.64-.44,2.84.86,6.52,3.65,8.05,3.43,1.88,8.78.34,11.5-4.39"/>
    <path class="cls-3" d="m31.64,169.07c.05,8.01.42,9.97.81,9.99.43.03.35-2.36,2.13-5.01,1.46-2.17,2.81-2.51,6.34-5.66,1.41-1.26,2.48-2.36,3.15-3.06"/>
    <path class="cls-3" d="m34.88,173.15c-.74-1.16-1.74-2.57-2.21-2.38-.9.36,1.88,5.83-.21,8.29-2.27,2.68-9.72,1.13-10.34-1.31-.4-1.57,2.23-2.24,2.98-5.62.34-1.55-.07-2.05-.94-6.81-.89-4.9-1.02-6.7-1.11-7.83-.13-1.75-.16-3.27-.17-3.87-.03-2.02.05-3.13.09-4.64.04-1.56.04-3.78-.13-6.51"/>
  </g>
  <g>
    <path class="cls-3" d="m139.57,283.2c.56.67,1.57,1.54,10.1,3.06,4.58.82,6.87,1.23,10.41,1.52,14.23,1.18,26.22.22,26.22.22,4.23-.37,17.11-1.68,30.54-5.64,29.19-8.61,51.22-26.88,60-34.75,5.23-4.69,13.52-12.83,21.68-25.57,14.36-22.41,17.81-43.54,19.33-53.45,1.54-10.09,2.79-18.44,1.16-29.64-1.96-13.46-6.98-23.73-10.7-30.01-.13-1.29-.36-2.93-.75-4.81,0,0-.44-1.92-1.01-3.93-.98-3.48-5.9-14.75-13.9-29.4-4.78-7.44-9.2-12.95-12.38-16.64-5.59-6.48-8.39-9.72-11.28-12.4-4.93-4.57-8.4-6.82-7.81-8.55.57-1.65,4.21-.95,8.14-1.67,15.07-2.76,29.6-25.4,34.18-29.55.47-.43,1.61-1.44,3.34-1.82.57-.12,1.01-.11,1.46-.16,1.84-.2,20.77,10.3,28.68,35.46,7.54,24,4.23,58.84-18.4,74.87-6.13,4.34-12.27,6.31-16.51,7.29-1,.72-2.02,1.44-3.04,2.17-.75.53-12.67,8.01-15.4,9.39-.47.24-1.01.51-1.68.88-.58.32-.92.52-1.16.66-.34.19-.58.31-.84.45-.94.48-1.23.65-1.94,1-1.61.8-1.7.71-3.42,1.56-.76.37-.86.45-1.58.79-.93.44-1.05.44-1.9.86-.39.19-.77.39-1.5.77-.34.18-.62.32-.82.43,0,0-.81.31-1.59.61-1.94.75-4.09,1.59-9.33,3.65-6.55,2.58-7.82,3.07-9.54,3.75-9.82,3.92-18.1,8.23-20.6,9.55-11.58,6.12-20.07,12.15-23.58,14.71-6.94,5.08-20.37,15.06-33.66,31.91-9.84,12.48-15.32,23.29-16.9,26.51-5.22,10.6-7.85,19.29-9.6,25.19-.6,2.02-1.61,6.65-3.64,15.9-2.11,9.63-2.59,12.64-.76,14.82Z"/>
    <path class="cls-2" d="m319.47,77.8c1.65-4.58,4.16-13.57,2.3-24.55-3.18-18.75-16.68-29.25-19.96-31.66"/>
    <path class="cls-2" d="m305.27,75.24c1.46-3.37,3.69-9.99,2.08-18.06-2.75-13.78-14.59-21.47-17.47-23.23"/>
    <circle class="cls-1" cx="188.9" cy="263.09" r="5.02"/>
    <path class="cls-2" d="m221.34,254.09c3.23-1.4,5.22-4.61,4.97-7.92-.25-3.27-2.63-5.73-4.97-6.64-2.4-.93-4.97-.32-6.38.03-2.37.57-3.7,1.53-3.98,1.18-.5-.64,4.14-3.32,4.22-7.22.05-2.56-1.88-5.2-4.3-6.27-2.13-.94-4.19-.46-5.27-.2-3.84.91-6.01,3.64-6.37,3.29-.36-.35,2.32-2.47,2.76-5.69.39-2.84-.97-6.5-3.79-7.98-3.46-1.82-8.79-.18-11.42,4.59"/>
    <path class="cls-3" d="m309.98,117.31c-.19-8.01-.6-9.96-.98-9.98-.43-.02-.31,2.37-2.04,5.05-1.42,2.2-2.77,2.56-6.24,5.77-1.39,1.28-2.44,2.4-3.09,3.12"/>
    <path class="cls-3" d="m306.68,113.28c.76,1.15,1.79,2.54,2.25,2.34.89-.37-1.98-5.79.07-8.29,2.23-2.72,9.7-1.3,10.36,1.13.43,1.56-2.19,2.28-2.88,5.67-.32,1.56.1,2.05,1.05,6.79.98,4.88,1.14,6.68,1.24,7.81.16,1.75.22,3.27.24,3.87.06,2.02,0,3.13,0,4.64-.01,1.56.02,3.78.24,6.51"/>
  </g>
</svg>